<svg width="24" height="24" viewBox="0 0 24 24" fill="none" xmlns="http://www.w3.org/2000/svg">
<path d="M10.7011 7.22619C10.307 6.92069 9.67389 6.92523 9.28693 7.23633C8.89999 7.54741 8.90602 8.04745 9.3 8.35295L9.30166 8.35424L9.3092 8.36011L9.34048 8.38458C9.36829 8.4064 9.40968 8.43901 9.4627 8.48116C9.56878 8.56551 9.72118 8.68788 9.9044 8.83839C10.2717 9.14014 10.7589 9.55168 11.2436 9.99476C11.732 10.4411 12.2008 10.9039 12.5418 11.3102C12.7126 11.5137 12.8379 11.6871 12.9173 11.8258C12.9748 11.9262 12.9926 11.9816 12.9981 12.0001C12.9926 12.0186 12.9748 12.074 12.9173 12.1743C12.8379 12.313 12.7126 12.4865 12.5418 12.6899C12.2008 13.0963 11.732 13.559 11.2436 14.0053C10.7588 14.4484 10.2717 14.8599 9.90439 15.1617C9.72117 15.3122 9.56877 15.4346 9.46268 15.5189C9.40966 15.5611 9.36827 15.5937 9.34046 15.6155L9.30918 15.6399L9.30164 15.6458L9.29968 15.6473C8.90569 15.9528 8.89996 16.4526 9.28688 16.7637C9.67384 17.0748 10.3071 17.0793 10.7012 16.7738L10.7023 16.7729L10.7146 16.7634L10.7502 16.7355C10.781 16.7114 10.8255 16.6763 10.8819 16.6315C10.9945 16.5419 11.1546 16.4133 11.3464 16.2558C11.7291 15.9414 12.242 15.5084 12.7572 15.0375C13.2688 14.5699 13.8 14.0494 14.209 13.5622C14.4132 13.3189 14.6004 13.0681 14.7397 12.8248C14.8711 12.5954 15.0004 12.3045 15.0004 12.0001C15.0004 11.6956 14.8711 11.4047 14.7397 11.1753C14.6004 10.932 14.4132 10.6812 14.209 10.438C13.8 9.95077 13.2688 9.43022 12.7572 8.96261C12.242 8.49174 11.7291 8.05868 11.3464 7.74431C11.1547 7.58677 10.9946 7.4582 10.8819 7.36862C10.8255 7.32382 10.781 7.28872 10.7502 7.26457L10.7146 7.23671L10.705 7.22922L10.7011 7.22619Z" fill="#111111"/>
<path fill-rule="evenodd" clip-rule="evenodd" d="M12.0004 2C6.47755 2 2.0004 6.47715 2.0004 12C2.0004 17.5228 6.47755 22 12.0004 22C17.5232 22 22.0004 17.5228 22.0004 12C22.0004 6.47715 17.5232 2 12.0004 2ZM3.39575 12C3.39575 7.24778 7.24818 3.39535 12.0004 3.39535C16.7526 3.39535 20.605 7.24778 20.605 12C20.605 16.7522 16.7526 20.6047 12.0004 20.6047C7.24818 20.6047 3.39575 16.7522 3.39575 12Z" fill="#111111"/>
</svg>
