<svg width="24" height="24" viewBox="0 0 24 24" fill="none" xmlns="http://www.w3.org/2000/svg">
<path d="M14.7007 8.35265C15.0947 8.04716 15.1004 7.54735 14.7135 7.23627C14.3266 6.92517 13.6932 6.92075 13.2992 7.22624L13.2954 7.22915L13.2858 7.23663L13.2502 7.26449C13.2194 7.28864 13.1749 7.32374 13.1185 7.36854C13.0059 7.45812 12.8458 7.58668 12.654 7.74422C12.2713 8.05858 11.7584 8.49164 11.2432 8.9625C10.7316 9.4301 10.2004 9.95065 9.79142 10.4378C9.58722 10.6811 9.40001 10.9319 9.26068 11.1752C9.12931 11.4046 9 11.6955 9 11.9999C9 12.3044 9.12931 12.5953 9.26068 12.8247C9.40001 13.068 9.58722 13.3188 9.79142 13.562C10.2004 14.0492 10.7316 14.5698 11.2432 15.0374C11.7584 15.5083 12.2713 15.9413 12.654 16.2557C12.8457 16.4132 13.0058 16.5418 13.1185 16.6314C13.1748 16.6762 13.2194 16.7113 13.2502 16.7354L13.2858 16.7633L13.2954 16.7708L13.2993 16.7738C13.6934 17.0793 14.3265 17.0748 14.7135 16.7637C15.1004 16.4526 15.0944 15.9526 14.7004 15.6471L14.6987 15.6458L14.6912 15.6399L14.6599 15.6154C14.6321 15.5936 14.5907 15.561 14.5377 15.5188C14.4316 15.4345 14.2792 15.3121 14.096 15.1616C13.7287 14.8599 13.2415 14.4483 12.7567 14.0052C12.2684 13.5589 11.7996 13.0961 11.4586 12.6898C11.2878 12.4863 11.1625 12.3129 11.0831 12.1742C11.0256 12.0738 11.0078 12.0184 11.0023 11.9999C11.0078 11.9814 11.0256 11.926 11.0831 11.8257C11.1625 11.687 11.2878 11.5135 11.4586 11.3101C11.7996 10.9037 12.2684 10.441 12.7567 9.99467C13.2415 9.5516 13.7287 9.14007 14.096 8.83833C14.2792 8.68781 14.4316 8.56544 14.5377 8.4811C14.5907 8.43895 14.6321 8.40634 14.6599 8.38452L14.6912 8.36005L14.7007 8.35265Z" fill="#111111"/>
<path fill-rule="evenodd" clip-rule="evenodd" d="M12 2C6.47715 2 2 6.47715 2 12C2 17.5228 6.47715 22 12 22C17.5228 22 22 17.5228 22 12C22 6.47715 17.5228 2 12 2ZM3.39535 12C3.39535 7.24778 7.24778 3.39535 12 3.39535C16.7522 3.39535 20.6047 7.24778 20.6047 12C20.6047 16.7522 16.7522 20.6047 12 20.6047C7.24778 20.6047 3.39535 16.7522 3.39535 12Z" fill="#111111"/>
</svg>
