<svg width="24" height="24" viewBox="0 0 24 24" fill="none" xmlns="http://www.w3.org/2000/svg">
<path fill-rule="evenodd" clip-rule="evenodd" d="M22 12C22 6.47715 17.5228 2 12 2C6.47715 2 2 6.47715 2 12C2 17.5228 6.47715 22 12 22C17.5228 22 22 17.5228 22 12ZM11.4482 12.0626C11.4344 12.0373 11.4242 12.0165 11.4166 12C11.4242 11.9835 11.4344 11.9627 11.4482 11.9374C11.5107 11.8223 11.6141 11.6697 11.7628 11.4827C12.0596 11.1095 12.4721 10.679 12.9082 10.2584C13.3399 9.84187 13.7745 9.45433 14.1028 9.16967L14.6408 8.71353C15.1136 8.32656 15.1206 7.69336 14.6563 7.29934C14.1919 6.90529 13.4321 6.89954 12.9593 7.2865L12.3723 7.78385C12.0256 8.08449 11.5602 8.49931 11.0919 8.95103C10.628 9.39861 10.1404 9.90228 9.76221 10.3779C9.57342 10.6153 9.39565 10.8658 9.26126 11.1135C9.13643 11.3436 9 11.6584 9 12C9 12.3417 9.13643 12.6564 9.26126 12.8865C9.39565 13.1342 9.57342 13.3847 9.76221 13.6221C10.1404 14.0977 10.628 14.6014 11.0919 15.049C11.5602 15.5007 12.0256 15.9155 12.3723 16.2162L12.9593 16.7135C13.4321 17.1005 14.1919 17.0947 14.6563 16.7007C15.1206 16.3066 15.1136 15.6734 14.6408 15.2865L14.1028 14.8303C13.7745 14.5457 13.3399 14.1581 12.9082 13.7416C12.4721 13.321 12.0596 12.8905 11.7628 12.5173C11.6141 12.3303 11.5107 12.1777 11.4482 12.0626Z" fill="#111111"/>
</svg>
