<svg width="24" height="24" viewBox="0 0 24 24" fill="none" xmlns="http://www.w3.org/2000/svg">
<path fill-rule="evenodd" clip-rule="evenodd" d="M2 12C2 17.5228 6.47715 22 12 22C17.5228 22 22 17.5228 22 12C22 6.47715 17.5228 2 12 2C6.47715 2 2 6.47715 2 12ZM12.5518 11.9374C12.5656 11.9627 12.5758 11.9835 12.5834 12C12.5758 12.0165 12.5656 12.0373 12.5518 12.0626C12.4893 12.1777 12.3859 12.3303 12.2372 12.5173C11.9404 12.8905 11.5279 13.321 11.0918 13.7416C10.6601 14.1581 10.2255 14.5457 9.89721 14.8303L9.3592 15.2865C8.88643 15.6734 8.8794 16.3066 9.34373 16.7007C9.80809 17.0947 10.5679 17.1005 11.0407 16.7135L11.6277 16.2162C11.9744 15.9155 12.4398 15.5007 12.9081 15.049C13.3721 14.6014 13.8596 14.0977 14.2378 13.6221C14.4266 13.3847 14.6044 13.1342 14.7387 12.8865C14.8636 12.6564 15 12.3416 15 12C15 11.6583 14.8636 11.3436 14.7387 11.1135C14.6044 10.8658 14.4266 10.6153 14.2378 10.3779C13.8596 9.90228 13.3721 9.39861 12.9081 8.95103C12.4398 8.49931 11.9744 8.08449 11.6277 7.78385L11.0407 7.2865C10.5679 6.89954 9.80809 6.90529 9.34373 7.29934C8.8794 7.69336 8.88643 8.32656 9.3592 8.71353L9.89721 9.16967C10.2255 9.45433 10.6601 9.84187 11.0918 10.2584C11.5279 10.679 11.9404 11.1095 12.2372 11.4827C12.3859 11.6697 12.4893 11.8223 12.5518 11.9374Z" fill="#111111"/>
</svg>
