<svg width="24" height="24" viewBox="0 0 24 24" fill="none" xmlns="http://www.w3.org/2000/svg">
<path fill-rule="evenodd" clip-rule="evenodd" d="M12 2.00098C17.5229 2.00098 22 6.47813 22 12.001C22 17.5239 17.5229 22.001 12 22.001C6.47715 22.001 2 17.5239 2 12.001C2 6.47813 6.47715 2.00098 12 2.00098ZM11.1064 11.0707H11.0698C10.556 11.0707 10.1395 11.4872 10.1395 12.001C10.1395 12.5147 10.556 12.9312 11.0698 12.9312V16.6521C11.0698 17.1659 11.4862 17.5824 12 17.5824C12.5138 17.5824 12.9302 17.1659 12.9302 16.6521V12.8946C12.9303 12.7087 12.9305 12.4873 12.9049 12.297C12.874 12.0671 12.7913 11.7493 12.5216 11.4795C12.2518 11.2097 11.9339 11.127 11.7041 11.0961C11.5137 11.0705 11.2924 11.0707 11.1064 11.0707ZM12.0041 7.34981C11.4843 7.34981 11.0697 7.7663 11.0697 8.28005C11.0697 8.7938 11.4843 9.21028 11.9957 9.21028C12.5155 9.21028 12.9301 8.7938 12.9301 8.28005C12.9301 7.7663 12.5155 7.34981 12.0041 7.34981Z" fill="#111111"/>
</svg>
