<svg width="24" height="24" viewBox="0 0 24 24" fill="none" xmlns="http://www.w3.org/2000/svg">
<path d="M11.5265 11.7695C11.4619 11.7685 11.3872 11.7684 11.2951 11.7684C10.9097 11.7684 10.5974 11.4561 10.5974 11.0708C10.5974 10.6854 10.9097 10.3731 11.2951 10.3731L11.3271 10.3731C11.5179 10.373 11.7242 10.3729 11.8984 10.3963C12.1024 10.4238 12.363 10.4943 12.5824 10.7137C12.8017 10.933 12.8723 11.1936 12.8997 11.3977C12.9231 11.5718 12.923 11.7781 12.923 11.9689L12.923 16.6522C12.923 17.0375 12.6106 17.3498 12.2253 17.3498C11.84 17.3498 11.5276 17.0375 11.5276 16.6522V12.001C11.5276 11.9088 11.5276 11.8341 11.5265 11.7695Z" fill="#111111"/>
<path d="M11.9927 7.34981C11.479 7.34981 11.0625 7.76629 11.0625 8.28005C11.0625 8.7938 11.479 9.21028 11.9927 9.21028H12.0011C12.5148 9.21028 12.9313 8.7938 12.9313 8.28005C12.9313 7.76629 12.5148 7.34981 12.0011 7.34981H11.9927Z" fill="#111111"/>
<path fill-rule="evenodd" clip-rule="evenodd" d="M2 12.001C2 17.5238 6.47715 22.001 12 22.001C17.5228 22.001 22 17.5238 22 12.001C22 6.47813 17.5228 2.00098 12 2.00098C6.47715 2.00098 2 6.47813 2 12.001ZM12 20.6056C7.24778 20.6056 3.39535 16.7532 3.39535 12.001C3.39535 7.24876 7.24778 3.39632 12 3.39632C16.7522 3.39632 20.6047 7.24876 20.6047 12.001C20.6047 16.7532 16.7522 20.6056 12 20.6056Z" fill="#111111"/>
</svg>
