<svg width="32" height="32" viewBox="0 0 32 32" fill="none" xmlns="http://www.w3.org/2000/svg">
<rect x="0.5" y="0.5" width="31" height="31" rx="15.5" stroke="#111111"/>
<path fill-rule="evenodd" clip-rule="evenodd" d="M17.5272 7.72975C17.7796 7.59118 18.0937 7.68883 18.2287 7.94786L18.6557 8.76705C18.7835 9.01221 18.8994 9.23442 18.9683 9.40982C19.004 9.50049 19.0435 9.61807 19.0549 9.74462C19.0671 9.87964 19.0505 10.0759 18.9112 10.2489C18.7659 10.4294 18.572 10.4778 18.4461 10.4891C18.3239 10.5 18.2028 10.4826 18.1056 10.4636C17.916 10.4265 17.6672 10.3507 17.3863 10.2651L17.3591 10.2568C16.7983 10.0859 16.2022 9.99374 15.5833 9.99374C12.229 9.99374 9.53659 12.6978 9.53659 16.0001C9.53659 17.0918 9.82935 18.1146 10.3418 18.9969C10.4883 19.2492 10.4078 19.5757 10.162 19.7261C9.91608 19.8765 9.59795 19.7939 9.45138 19.5416C8.84664 18.5004 8.5 17.2902 8.5 16.0001C8.5 12.0804 11.6861 8.92992 15.5833 8.92992C16.3029 8.92992 16.9984 9.03718 17.6541 9.23697C17.6832 9.24584 17.7113 9.25439 17.7384 9.26263C17.735 9.25595 17.7315 9.24921 17.7279 9.2424L17.3147 8.44967C17.1796 8.19064 17.2748 7.86832 17.5272 7.72975ZM21.0047 12.2741C21.2506 12.1236 21.5687 12.2063 21.7153 12.4586C22.32 13.4998 22.6667 14.71 22.6667 16.0001C22.6667 19.9198 19.4806 23.0702 15.5833 23.0702C14.8638 23.0702 14.1683 22.963 13.5125 22.7632C13.4834 22.7543 13.4553 22.7458 13.4282 22.7375C13.4317 22.7442 13.4352 22.751 13.4388 22.7578L13.852 23.5505C13.987 23.8095 13.8919 24.1318 13.6395 24.2704C13.3871 24.409 13.073 24.3113 12.938 24.0523L12.511 23.2331C12.3831 22.988 12.2673 22.7657 12.1983 22.5903C12.1627 22.4997 12.1232 22.3821 12.1118 22.2555C12.0996 22.1205 12.1162 21.9243 12.2554 21.7512C12.4007 21.5708 12.5947 21.5223 12.7206 21.5111C12.8428 21.5002 12.9638 21.5176 13.061 21.5366C13.2506 21.5736 13.4995 21.6495 13.7805 21.7351L13.8076 21.7434C14.3684 21.9142 14.9645 22.0064 15.5833 22.0064C18.9376 22.0064 21.6301 19.3024 21.6301 16.0001C21.6301 14.9084 21.3373 13.8855 20.8249 13.0033C20.6783 12.751 20.7588 12.4245 21.0047 12.2741Z" fill="#111111"/>
</svg>
